<?xml version="1.0" encoding="utf-8"?>
<!-- Generator: Adobe Illustrator 19.2.1, SVG Export Plug-In . SVG Version: 6.00 Build 0)  -->
<svg version="1.1" id="layer" xmlns="http://www.w3.org/2000/svg" xmlns:xlink="http://www.w3.org/1999/xlink" x="0px" y="0px"
	 viewBox="0 0 652 652" style="enable-background:new 0 0 652 652;" xml:space="preserve">
<style type="text/css">
	.st0{fill:#000099;}
	.st1{fill-rule:evenodd;clip-rule:evenodd;fill:#000099;}
</style>
<g>
	<path class="st0" d="M220.4,226.4c0-11.2,9.1-20.2,20.2-20.2c11.2,0,20.2,9.1,20.2,20.2c0,11.2-9.1,20.2-20.2,20.2
		C229.4,246.6,220.4,237.6,220.4,226.4"/>
	<path class="st0" d="M269,226.4c0-11.2,9.1-20.2,20.2-20.2c11.2,0,20.2,9.1,20.2,20.2c0,11.2-9.1,20.2-20.2,20.2
		C278.1,246.6,269,237.6,269,226.4"/>
	<path class="st0" d="M85.5,209.4c11.4-0.1,27.6,0.1,35.9,7.5c7.5,6.4,13.3,15.2,12.8,25.6v121.2c-0.5,11.6-8.2,22.9-19.1,27.3
		c-7.4,4-56.3,2.5-56.9,2.7H20.9v-145h39.3v124l21.3,0.1c5.4,0.4,10.7-1.6,13.5-6.4c1.6-2.4,1.6-5.2,1.7-8.2V249.6
		c0.1-6.4,0.3-13.4-5.4-17.3c-4-3.5-9.5-2.6-14.7-2.8c-9.6,0-55.9,0-55.9,0v-20.1H85.5"/>
	<path class="st0" d="M212.7,286c-1-0.2-1.9-1.1-2.9-1.5c-6.5-3.1-16.8-4.2-22.7,0.9c-2.5,2.1-4.1,4.7-4.2,7.9V394h-37.2
		c0,0,0-114-0.1-120.4c11.5-10.1,26.7-12.2,41.8-13.4l14.5-0.7c3.6,0,10.7-0.1,10.7-0.1V286"/>
	<path class="st1" d="M275.2,337.8v35.2l-19.2-0.1c-4.9-0.7-9.7-4.5-11.2-9.3c-0.9-5.6-0.7-12.1-0.4-18c-0.6-2.9-0.1-5.5,1.1-7.9
		c0.8-1.5,1.9-3,3.2-4.2c5.3-5.7,14.3-2.8,21.1-3.6h5.4V337.8 M282.9,259.9l-22.7-0.3c-4,0.1-7.5-0.1-11.3-0.1l-28.3-0.1l-0.1,26.5
		l0.2,0.4c0,0,15.7-4.3,23.8-5.6c6.1-1.3,13-1.5,19.4-0.4c4.9,0.9,10.1,4.1,11.3,9.2c0.4,6.7,0,19.4,0,19.4l-35.7,0
		c-8.9,0.3-13.5,2.5-18.7,7c-7,5.5-11.1,13.2-11.6,22v0c-0.1,1.4-0.1,2.9,0.1,4.3c0,0,0,24.8,0.9,28.5c2.1,10,11.1,18.8,20.6,22.1
		c7.9,2.6,17.2,1.2,25.4,1.6H312v-56.5v-50.5c-0.3-2.5-0.8-4.9-1.7-7.2C306.2,269.2,294.8,260.4,282.9,259.9"/>
	<path class="st1" d="M383.8,323c-5.7,3.7-14.6,3.4-20.3-0.3c-2.3-1.5-3.8-3.4-4.7-5.7c-0.9-2.3-1.2-4.9-1-7.7l0.1-17.1
		c0.6-5.1,4.7-9.7,9.6-11.2c3.7-0.9,7.6-1,11.4-0.4c3.7,0.4,6.8,3.2,9,6.2c1.3,1.9,1.9,4,2.2,6.3l0.2,17.5c0.2,2.3-0.2,4.5-1.1,6.4
		C388,319.4,386.1,321.5,383.8,323 M423.6,317L423.6,317l-0.2-57h-68.6c-2.4,0.2-4.9-0.1-7.1,0.5c-11.3,2.1-21.7,12.4-23.6,23.8
		c-1.4,8.8-0.3,17.5-0.7,26.5c-0.1,2.1-0.1,4.2,0.1,6.1c0.5,4.1,1.7,8,3.6,11.5c6,10.7,17.8,17.2,30.4,16.5h29.7
		c5.9,0.3,12.3,0.1,17.5-2.3c10.4-3.9,17.8-14.5,18.9-25.2V317z"/>
</g>
<g>
	<path class="st1" d="M507.9,260.6c9.3,0,17.9,2.8,24,9.9c7.4,7.8,8.7,18.1,8.6,28.9v21.7v23.8h-68.4l0.1,18.4
		c0.6,4.5,4.5,8.7,8.7,10.3c8,2.4,17.9,1.6,26.5,0.9c10.9-1.1,21.6-2.9,31.8-5.7l0.4,0.4l0.1,25.8l-0.4,0.4l-51.2-0.4
		c0,0-27.2,2.4-37.8-4.9c-7.7-4.9-12.9-13-14.2-21.8l-0.4-7.5c0,0-0.3-66.6,0-73.2c0.9-11.2,9.9-22.7,20.8-25.7
		C463.2,259.6,507.9,260.6,507.9,260.6 M502.7,289.5c-0.8-2.2-2.5-4.1-4.4-5.7c-4.7-3.3-11.4-4-17.1-2.4c-4.6,1.5-9,6.1-9.3,11.1
		l0.1,31.6h31.8l-0.1-29.3C503.5,292.9,503.3,291.1,502.7,289.5"/>
	<path class="st0" d="M620.8,261.3v26.3c-5-3.2-10.6-4.6-17-4.3c-5.6,0.4-11.3,3.8-13.4,9.2c-0.9,5.2-0.6,10.8-0.6,16.3v86.5h-36.9
		V275.3c14.8-12.8,34.7-13.5,54.6-14.3C611.9,261.3,616.5,260.8,620.8,261.3"/>
	<path class="st1" d="M390.6,407.5c-1.5,2.9-4,5.4-7,6.7c-4.6,1.6-10.7,1.6-15.7,0.6c-3.6-1.2-7-3.8-8.7-7.3c-0.5-0.9-0.8-2-1-3
		l-0.3-5.5l0.1-16.4c0.4-4.8,4.1-9.3,8.8-10.8c7.6-1.7,18.1-2.3,22.9,5.5c2.2,3.4,2.4,7.3,2.2,11.6l-0.1,14.9
		C391.6,405.1,391.2,406.3,390.6,407.5 M423.9,368.5c-5.2-10.4-16.1-18.4-28.1-18.1h-46c-9.6,0.8-18.7,7-23.6,15.6
		c-4.8,7.1-4,16.8-3.9,25.5c0.3,5.4-0.3,10.8,0.3,16c0.2,1.9,0.5,3.7,1.1,5.5c2.9,10.8,13.2,20.2,24.2,22.1c10.2,1.1,31,0.8,31,0.8
		h17.7c10.2,0.4,19.3-4.7,25.2-13.1c3.4-4.3,4.7-9.6,5-15.2c0.1-1.9,0.2-3.8,0.1-5.7v-18.6C427.3,377.7,426.1,372.9,423.9,368.5"/>
</g>
</svg>
